<?xml version="1.0" encoding="UTF-8"?>
<svg version="1.1" xmlns="http://www.w3.org/2000/svg" width="512" height="512">
<path d="M0 0 C1.01545898 0.19867676 2.03091797 0.39735352 3.07714844 0.60205078 C52.9758035 10.58327711 96.53871388 34.88580573 133 70 C133.7940625 70.7528125 134.588125 71.505625 135.40625 72.28125 C140.75597303 77.46114055 145.38660506 83.16405541 150 89 C151.19109375 90.48306641 151.19109375 90.48306641 152.40625 91.99609375 C175.32205725 121.03970389 191.22147176 154.85685587 199.6875 190.8125 C199.97306763 191.99936401 199.97306763 191.99936401 200.2644043 193.21020508 C204.22851721 210.89052902 205.555362 228.61292655 205.4375 246.6875 C205.43293793 248.18546112 205.43293793 248.18546112 205.42828369 249.71368408 C205.35621635 265.78341917 204.43972751 281.25213186 201 297 C200.78037598 298.02625488 200.56075195 299.05250977 200.33447266 300.10986328 C191.83138831 338.85817193 174.61772522 375.56726438 149 406 C148.57138672 406.51739746 148.14277344 407.03479492 147.70117188 407.56787109 C137.18164284 420.2564129 126.03816903 431.86528878 113 442 C111.52660156 443.18142578 111.52660156 443.18142578 110.0234375 444.38671875 C70.29759115 476.0035908 18.37047678 496.93437939 -32.79296875 497.203125 C-33.69337387 497.21018463 -34.59377899 497.21724426 -35.52146912 497.22451782 C-72.98691069 497.45161655 -72.98691069 497.45161655 -90 494 C-91.01545898 493.80132324 -92.03091797 493.60264648 -93.07714844 493.39794922 C-142.9758035 483.41672289 -186.53871388 459.11419427 -223 424 C-223.7940625 423.2471875 -224.588125 422.494375 -225.40625 421.71875 C-230.75597303 416.53885945 -235.38660506 410.83594459 -240 405 C-240.7940625 404.01128906 -241.588125 403.02257812 -242.40625 402.00390625 C-266.9776499 370.86198961 -283.32468106 334.48759715 -291.25 295.6875 C-291.47671387 294.57942993 -291.47671387 294.57942993 -291.70800781 293.44897461 C-292.18439803 290.97158418 -292.60252786 288.49133778 -293 286 C-293.17805176 284.88423584 -293.35610352 283.76847168 -293.53955078 282.61889648 C-295.19998488 270.98027732 -295.3987437 259.43103747 -295.375 247.6875 C-295.37445618 246.6738739 -295.37391235 245.6602478 -295.37335205 244.61590576 C-295.33347417 228.41878779 -294.46747801 212.87491635 -291 197 C-290.78037598 195.97374512 -290.56075195 194.94749023 -290.33447266 193.89013672 C-279.82149525 145.98280374 -255.85138923 104.15003587 -222 69 C-221.2471875 68.2059375 -220.494375 67.411875 -219.71875 66.59375 C-214.53885945 61.24402697 -208.83594459 56.61339494 -203 52 C-202.01128906 51.2059375 -201.02257812 50.411875 -200.00390625 49.59375 C-167.66655102 24.07913264 -130.33332447 7.86607287 -90 0 C-89.17274414 -0.16661133 -88.34548828 -0.33322266 -87.49316406 -0.50488281 C-59.91781494 -5.80488028 -27.50199116 -5.57960557 0 0 Z" fill="#0077B6" transform="translate(301,9)" />
<path d="M0 0 C21.470625 -0.061875 42.94125 -0.12375 65.0625 -0.1875 C71.81726807 -0.21481201 78.57203613 -0.24212402 85.53149414 -0.27026367 C93.84265137 -0.28381348 93.84265137 -0.28381348 97.74559021 -0.28633118 C100.4451048 -0.2909085 103.1441834 -0.30024765 105.84361267 -0.31672668 C140.4334535 -0.5185289 140.4334535 -0.5185289 156.75 6.6875 C157.5529248 7.03562744 158.35584961 7.38375488 159.18310547 7.74243164 C175.51051523 15.07212993 188.32746255 27.56121635 195.3125 44.125 C201.17323707 60.17285516 200.53647992 77.67030599 193.33520508 93.23999023 C186.92890243 106.22234954 178.16906272 115.04431861 167 124 C167.76183594 124.4125 168.52367187 124.825 169.30859375 125.25 C186.40629617 134.8127599 198.26177083 148.69867165 203.83666992 167.72998047 C208.84547004 186.52490663 206.18213548 206.40097109 196.66015625 223.390625 C184.26472957 243.03102407 165.94416764 254.04959684 144.03515625 260.08984375 C97.19592633 270.65474266 48.01594056 262 0 262 C0 175.54 0 89.08 0 0 Z" fill="#F5F5F5" transform="translate(153,125)" />
<path d="M0 0 C10.8590625 -0.0928125 10.8590625 -0.0928125 21.9375 -0.1875 C25.33857056 -0.22846802 25.33857056 -0.22846802 28.80834961 -0.27026367 C30.63134226 -0.27903604 32.45434085 -0.28667819 34.27734375 -0.29296875 C35.20293091 -0.30831665 36.12851807 -0.32366455 37.08215332 -0.33947754 C44.8990893 -0.34258319 52.42534508 0.85237365 58.375 6.3125 C59.00148438 6.86550781 59.62796875 7.41851562 60.2734375 7.98828125 C64.45829556 12.86430365 65.55815294 17.57286185 65.5 23.875 C65.49500488 24.58245361 65.49000977 25.28990723 65.48486328 26.01879883 C65.22183654 33.88692627 62.53838836 37.46161164 57.1875 42.8125 C49.95521979 47.77582955 43.69059939 48.43051474 35.15625 48.29296875 C34.2600293 48.28994751 33.36380859 48.28692627 32.44042969 48.28381348 C29.12683417 48.26824418 25.81340421 48.2263612 22.5 48.1875 C11.3625 48.0946875 11.3625 48.0946875 0 48 C0 32.16 0 16.32 0 0 Z" fill="#36BFB1" transform="translate(222,280)" />
<path d="M0 0 C6.909375 -0.0825 13.81875 -0.165 20.9375 -0.25 C23.10046631 -0.28641602 25.26343262 -0.32283203 27.49194336 -0.36035156 C29.2329001 -0.3720491 30.97386791 -0.38223839 32.71484375 -0.390625 C33.59724731 -0.41108887 34.47965088 -0.43155273 35.38879395 -0.45263672 C43.72222947 -0.45725678 50.93628186 2.11462651 57 8 C61.7452449 14.77892128 61.69392642 21.93310534 61 30 C59.45353276 35.35380236 56.79386751 39.08199369 52 42 C45.16491935 45.34209564 39.40594015 46.57166075 31.8359375 46.390625 C30.6125769 46.38458252 30.6125769 46.38458252 29.36450195 46.37841797 C26.36776677 46.35776046 23.37135661 46.30191878 20.375 46.25 C10.289375 46.12625 10.289375 46.12625 0 46 C0 30.82 0 15.64 0 0 Z" fill="#38A169" transform="translate(222,181)" />
</svg>
